<?xml version="1.0" standalone="no"?>
<!DOCTYPE svg PUBLIC "-//W3C//DTD SVG 20010904//EN"
 "http://www.w3.org/TR/2001/REC-SVG-20010904/DTD/svg10.dtd">
<svg version="1.0" xmlns="http://www.w3.org/2000/svg"
 width="300.000000pt" height="300.000000pt" viewBox="0 0 300.000000 300.000000"
 preserveAspectRatio="xMidYMid meet">
<metadata>
Created by potrace 1.10, written by Peter Selinger 2001-2011
</metadata>
<g transform="translate(0.000000,300.000000) scale(0.100000,-0.100000)"
fill="#000000" stroke="none">
<path d="M1301 2250 c-193 -51 -362 -178 -464 -351 -39 -66 -82 -188 -93 -262
l-6 -42 26 25 c15 15 32 48 41 83 63 241 258 436 505 503 80 22 252 24 330 5
131 -32 285 -122 359 -208 34 -41 38 -42 56 -28 19 15 17 18 -62 94 -94 91
-219 159 -340 185 -100 22 -259 20 -352 -4z"/>
<path d="M2377 2123 c-3 -4 -10 -26 -16 -48 l-11 -41 -109 -32 c-141 -41 -201
-68 -201 -93 0 -22 23 -25 39 -5 7 8 35 23 64 35 53 21 190 62 194 57 1 -1 -3
-79 -9 -172 l-11 -170 -65 -44 c-36 -25 -70 -49 -76 -53 -7 -5 -30 9 -60 37
-49 44 -49 45 -32 70 9 14 23 26 32 26 17 0 16 31 -2 37 -19 6 -64 -38 -85
-82 -12 -26 -33 -49 -54 -61 -33 -17 -35 -17 -54 1 -14 12 -21 31 -21 54 0 20
-5 43 -10 51 -12 19 -23 9 -66 -67 -25 -43 -33 -52 -34 -35 -1 68 89 163 115
122 9 -15 25 -12 25 4 0 20 -26 39 -56 39 -30 0 -69 -35 -94 -83 -19 -37 -53
-71 -134 -136 l-49 -39 7 51 c9 73 45 205 62 231 20 31 18 53 -5 53 -21 0 -49
-53 -71 -132 l-13 -48 -38 6 c-27 5 -46 2 -63 -10 -14 -9 -27 -16 -29 -16 -3
0 -2 20 0 44 4 28 1 46 -7 51 -17 10 -30 -13 -30 -55 0 -29 -7 -40 -39 -62
-61 -43 -90 -51 -117 -33 -27 18 -32 55 -8 55 27 0 86 66 82 92 -5 38 -47 35
-87 -6 -37 -38 -52 -106 -32 -143 25 -48 103 -45 167 6 l29 23 5 -56 c6 -66
22 -74 32 -17 7 44 25 82 42 93 6 4 28 8 50 8 35 0 38 -2 32 -22 -3 -13 -9
-48 -12 -79 l-7 -57 -40 -6 c-45 -8 -67 -21 -67 -42 0 -16 28 -18 62 -5 13 5
27 9 31 10 4 1 10 -30 12 -69 10 -188 85 -271 138 -152 29 65 29 161 1 199
-11 15 -34 35 -51 44 l-31 15 73 56 c72 55 73 56 79 32 12 -47 55 -26 91 46
l18 34 11 -34 c21 -65 83 -76 143 -26 l28 24 45 -38 44 -37 -43 -49 c-75 -85
-99 -154 -65 -188 25 -25 54 -19 94 22 44 44 71 120 63 179 -5 37 -4 39 61 86
36 26 68 47 71 47 3 0 5 -61 5 -136 0 -128 8 -174 30 -174 6 0 10 86 10 223 0
122 5 279 11 349 l12 126 66 12 c36 7 98 14 136 16 39 1 72 3 74 3 2 1 -2 8
-9 16 -16 19 -70 19 -175 0 -77 -14 -103 -12 -76 4 15 10 11 63 -6 68 -6 2
-13 0 -16 -4z m-1078 -422 c-13 -20 -48 -45 -55 -38 -2 2 7 16 20 30 29 31 52
37 35 8z m832 -302 c-13 -42 -65 -104 -81 -94 -23 15 -1 75 53 140 31 38 32
39 35 15 2 -13 -1 -41 -7 -61z m-466 -25 c12 -26 15 -48 11 -76 -9 -57 -34
-110 -48 -106 -20 7 -36 84 -37 171 l-1 78 29 -15 c15 -8 36 -32 46 -52z"/>
<path d="M1180 1996 c-6 -8 -21 -62 -32 -120 -19 -99 -22 -106 -44 -106 -43 0
-91 -69 -115 -164 -14 -56 -1 -96 30 -96 24 0 43 26 72 99 12 31 25 59 28 63
3 4 6 -61 6 -145 0 -157 7 -207 28 -207 9 0 12 56 12 238 0 216 2 244 23 315
31 110 28 166 -8 123z m-75 -273 c-11 -45 -77 -183 -85 -178 -10 6 5 83 23
127 14 32 51 78 63 78 4 0 3 -12 -1 -27z"/>
<path d="M2115 1887 c-19 -14 -18 -16 13 -85 18 -38 38 -98 43 -131 11 -61 22
-71 43 -38 13 21 -10 117 -51 206 -26 58 -29 61 -48 48z"/>
<path d="M638 1730 c-35 -27 -62 -99 -54 -144 11 -57 41 -86 90 -86 42 0 70
13 119 58 l27 26 0 -43 c0 -51 14 -81 39 -81 22 0 56 36 70 73 17 43 14 118
-5 139 -14 15 -15 20 -4 33 10 12 10 19 2 27 -14 14 -46 -12 -69 -56 -20 -39
-91 -115 -124 -132 -67 -34 -105 -6 -97 71 6 50 36 101 51 86 19 -19 28 -12
25 17 -4 35 -35 40 -70 12z m272 -108 c0 -41 -19 -98 -37 -113 -14 -13 -15 -9
-11 41 6 65 24 114 38 105 5 -3 10 -18 10 -33z"/>
<path d="M2220 1477 c0 -62 -25 -138 -60 -182 -16 -21 -30 -42 -30 -47 0 -25
-89 -157 -144 -213 -55 -56 -60 -65 -49 -81 12 -17 18 -14 69 36 102 101 188
256 213 387 17 85 21 143 11 143 -6 0 -10 -19 -10 -43z"/>
<path d="M755 1484 c-18 -13 -18 -19 -7 -85 27 -155 107 -303 227 -419 64 -61
68 -63 82 -45 13 18 10 23 -35 62 -126 109 -232 314 -232 451 0 48 -8 56 -35
36z"/>
<path d="M1111 954 c-24 -40 -28 -69 -6 -40 17 22 50 14 41 -10 -14 -37 8 -32
27 7 l21 42 -23 18 c-31 26 -36 24 -60 -17z m57 -7 c4 -19 -6 -21 -27 -8 -16
10 -5 34 12 28 7 -2 13 -11 15 -20z"/>
<path d="M1816 964 c-21 -20 -20 -37 2 -64 25 -30 69 -21 78 16 12 48 -46 83
-80 48z m59 -34 c0 -33 -40 -41 -50 -11 -9 28 2 43 28 39 16 -2 22 -10 22 -28z"/>
<path d="M1283 877 c-7 -23 -9 -45 -5 -49 13 -13 62 -20 62 -10 0 6 -10 12
-22 14 -12 2 -24 9 -26 17 -4 11 2 13 27 8 17 -4 31 -2 31 3 0 5 -10 10 -22
12 -12 2 -23 9 -26 17 -3 10 3 12 29 6 40 -8 29 9 -12 18 -23 6 -26 2 -36 -36z"/>
<path d="M1663 909 c-18 -5 -33 -14 -33 -19 0 -5 6 -7 14 -4 11 4 18 -6 26
-35 6 -23 15 -39 20 -36 6 3 5 16 0 31 -14 36 -12 54 5 54 8 0 15 5 15 10 0
12 -4 11 -47 -1z"/>
<path d="M1466 873 c-7 -18 16 -43 41 -43 7 0 13 -4 13 -10 0 -14 -33 -12 -49
3 -10 10 -12 8 -9 -8 4 -26 50 -32 68 -9 12 14 12 18 -5 30 -10 8 -25 14 -32
14 -7 0 -13 4 -13 8 0 17 13 21 32 11 16 -9 19 -8 16 3 -7 21 -54 22 -62 1z"/>
</g>
</svg>
